# xmcd
#
# Track frame offsets: 
#        187
#        15327
#        28935
#        42447
#        55377
#        70267
#        82252
#        101345
#        113250
#        127387
#        138870
#        152687
#        163700
#        175675
#        189472
#        198792
#        211377
#        225742
#
# Disc length: 3192 seconds
#
# Revision: 1
# Processed by: cddbd v1.5.2PL0 Copyright (c) Steve Scherf et al.
# Submitted via: ExactAudioCopyFreeDBPlugin 1.0
#
DISCID=f10c7612
DTITLE=Big Walter "Shakey" Horton - The Soul Of Blues Harmonica
DYEAR=1987
DGENRE=Blues
TTITLE0=Groove Talk
TTITLE1=Wee Baby Blues
TTITLE2=It's All Right
TTITLE3=Wrinkles
TTITLE4=Hard HeartedWoman
TTITLE5=John Henry
TTITLE6=Good Mornin Blues
TTITLE7=Friday Night Stomp
TTITLE8=Gonna Bring It on Home
TTITLE9=La Cucuracha
TTITLE10=West Winds Are Blowin
TTITLE11=Little Walters Boogie
TTITLE12=Truckin Little Woman
TTITLE13=Just One Mistake
TTITLE14=If it Aint Me
TTITLE15=Walkin By Myself
TTITLE16=Blow Wind Blow
TTITLE17=Mad Love
EXTD=
EXTT0=
EXTT1=
EXTT2=
EXTT3=
EXTT4=
EXTT5=
EXTT6=
EXTT7=
EXTT8=
EXTT9=
EXTT10=
EXTT11=
EXTT12=
EXTT13=
EXTT14=
EXTT15=
EXTT16=
EXTT17=
PLAYORDER=
